<svg id="visual" viewBox="0 0 900 900" width="900" height="900" xmlns="http://www.w3.org/2000/svg" xmlns:xlink="http://www.w3.org/1999/xlink" version="1.1"><path d="M0 73L82 145L164 91L245 82L327 154L409 109L491 127L573 163L655 109L736 145L818 64L900 91L900 0L818 0L736 0L655 0L573 0L491 0L409 0L327 0L245 0L164 0L82 0L0 0Z" fill="#00cc8e"></path><path d="M0 172L82 262L164 172L245 235L327 307L409 163L491 181L573 316L655 262L736 208L818 208L900 163L900 89L818 62L736 143L655 107L573 161L491 125L409 107L327 152L245 80L164 89L82 143L0 71Z" fill="#00b98a"></path><path d="M0 361L82 433L164 280L245 379L327 406L409 397L491 379L573 469L655 433L736 442L818 424L900 379L900 161L818 206L736 206L655 260L573 314L491 179L409 161L327 305L245 233L164 170L82 260L0 170Z" fill="#00a784"></path><path d="M0 748L82 703L164 496L245 667L327 613L409 550L491 757L573 757L655 550L736 766L818 550L900 694L900 377L818 422L736 440L655 431L573 467L491 377L409 395L327 404L245 377L164 278L82 431L0 359Z" fill="#00957c"></path><path d="M0 901L82 901L164 901L245 901L327 901L409 901L491 901L573 901L655 901L736 901L818 901L900 901L900 692L818 548L736 764L655 548L573 755L491 755L409 548L327 611L245 665L164 494L82 701L0 746Z" fill="#038373"></path></svg>